<?xml version="1.0" encoding="UTF-8" standalone="no"?>
<!-- Created with Inkscape (http://www.inkscape.org/) -->

<svg
   width="171"
   height="36"
   viewBox="0 0 45.243749 9.5250003"
   version="1.1"
   id="svg5"
   inkscape:version="1.1.1 (3bf5ae0d25, 2021-09-20)"
   sodipodi:docname="Penngram jhy.svg"
   inkscape:export-filename="D:\Desktop\penngram.png"
   inkscape:export-xdpi="96"
   inkscape:export-ydpi="96"
   xmlns:inkscape="http://www.inkscape.org/namespaces/inkscape"
   xmlns:sodipodi="http://sodipodi.sourceforge.net/DTD/sodipodi-0.dtd"
   xmlns:xlink="http://www.w3.org/1999/xlink"
   xmlns="http://www.w3.org/2000/svg"
   xmlns:svg="http://www.w3.org/2000/svg">
  <sodipodi:namedview
     id="namedview7"
     pagecolor="#ffffff"
     bordercolor="#666666"
     borderopacity="1.0"
     inkscape:pageshadow="2"
     inkscape:pageopacity="0.0"
     inkscape:pagecheckerboard="0"
     inkscape:document-units="mm"
     showgrid="false"
     units="px"
     inkscape:zoom="2.8284271"
     inkscape:cx="106.06602"
     inkscape:cy="30.582368"
     inkscape:window-width="1920"
     inkscape:window-height="1017"
     inkscape:window-x="-8"
     inkscape:window-y="-8"
     inkscape:window-maximized="1"
     inkscape:current-layer="g4653"
     showguides="true"
     inkscape:guide-bbox="true" />
  <defs
     id="defs2">
    <linearGradient
       inkscape:collect="always"
       id="linearGradient966">
      <stop
         style="stop-color:#fff307;stop-opacity:1"
         offset="0"
         id="stop962" />
      <stop
         style="stop-color:#8b00ff;stop-opacity:0.94117647"
         offset="1"
         id="stop964" />
    </linearGradient>
    <linearGradient
       inkscape:collect="always"
       xlink:href="#linearGradient966"
       id="linearGradient8927"
       x1="16.351013"
       y1="9.242897"
       x2="27.194113"
       y2="-1.5479181"
       gradientUnits="userSpaceOnUse"
       gradientTransform="matrix(0.77347531,0,0,0.773476,-11.852917,1.1032251)" />
  </defs>
  <g
     inkscape:label="Layer 1"
     inkscape:groupmode="layer"
     id="layer1">
    <g
       id="g4653">
      <path
         id="rect846-2"
         style="fill:none;fill-rule:evenodd;stroke:url(#linearGradient8927);stroke-width:3.122;stroke-linecap:round;stroke-linejoin:round"
         d="M 1.6227188,2.251759 H 6.6441206 V 7.273241 H 1.6227188 Z"
         inkscape:export-filename="D:\Desktop\sffdsfvdsf.png"
         inkscape:export-xdpi="96"
         inkscape:export-ydpi="96" />
      <g
         id="g4639"
         transform="matrix(0.7734753,0,0,0.773476,-13.336109,1.078858)"
         style="stroke-width:1.29286"
         inkscape:export-filename="D:\Desktop\sffdsfvdsf.png"
         inkscape:export-xdpi="96"
         inkscape:export-ydpi="96">
        <path
           id="rect7114"
           style="fill:#ffffff;fill-opacity:0;fill-rule:evenodd;stroke-width:0.129074;stroke-linecap:round;stroke-linejoin:round"
           d="m 22.621875,4.1551223 c 0.01748,0 0.03155,0.2708904 0.03155,0.6073777 0,0.3364872 -0.01407,0.6073777 -0.03155,0.6073777 -0.01748,0 -0.03155,-0.2708905 -0.03155,-0.6073777 0,-0.3364873 0.01407,-0.6073777 0.03155,-0.6073777 z" />
        <path
           id="rect3722"
           style="fill:#ffffff;fill-rule:evenodd;stroke-width:0.117962;stroke-linecap:round;stroke-linejoin:round"
           d="m 20.827237,2.3348382 h 3.589277 c 0.350675,0 0.632987,0.282312 0.632987,0.6329865 v 3.5893507 c 0,0.3506745 -0.282312,0.6329865 -0.632987,0.6329865 h -3.589277 c -0.350675,0 -0.632987,-0.282312 -0.632987,-0.6329865 V 2.9678247 c 0,-0.3506745 0.282312,-0.6329865 0.632987,-0.6329865 z" />
        <g
           id="g4379"
           transform="matrix(0.73341028,0,0,0.73341028,-9.6070298,6.3450853)"
           style="fill:#ffffff;stroke-width:1.29286">
          <path
             id="rect4316"
             style="fill-rule:evenodd;stroke-width:0.0335774;stroke-linecap:round;stroke-linejoin:round"
             d="m 38.581237,-5.4680772 h 1.021661 c 0.09982,0 0.180175,0.080358 0.180175,0.180175 v 1.0216823 c 0,0.099817 -0.08036,0.180175 -0.180175,0.180175 h -1.021661 c -0.09982,0 -0.180175,-0.080358 -0.180175,-0.180175 v -1.0216823 c 0,-0.099817 0.08036,-0.180175 0.180175,-0.180175 z" />
          <path
             id="rect4372"
             style="fill-rule:evenodd;stroke-width:0.0335774;stroke-linecap:round;stroke-linejoin:round"
             d="m 38.581237,-2.8523836 h 1.021661 c 0.09982,0 0.180175,0.080358 0.180175,0.1801749 v 1.0216824 c 0,0.099817 -0.08036,0.180175 -0.180175,0.180175 h -1.021661 c -0.09982,0 -0.180175,-0.080358 -0.180175,-0.180175 v -1.0216824 c 0,-0.099817 0.08036,-0.1801749 0.180175,-0.1801749 z" />
          <path
             id="rect4374"
             style="fill-rule:evenodd;stroke-width:0.0335774;stroke-linecap:round;stroke-linejoin:round"
             d="m 38.581237,-0.23668995 h 1.021661 c 0.09982,0 0.180175,0.080358 0.180175,0.18017496 v 1.02168235 c 0,0.0998169 -0.08036,0.18017494 -0.180175,0.18017494 h -1.021661 c -0.09982,0 -0.180175,-0.080358 -0.180175,-0.18017494 v -1.02168235 c 0,-0.09981693 0.08036,-0.18017496 0.180175,-0.18017496 z" />
        </g>
        <g
           id="g4507"
           transform="matrix(0.73341028,0,0,0.73341028,-2.5624986,6.3450853)"
           style="fill:#ffffff;stroke-width:1.29286">
          <path
             id="rect4501"
             style="fill-rule:evenodd;stroke-width:0.0335774;stroke-linecap:round;stroke-linejoin:round"
             d="m 38.581237,-5.4680772 h 1.021661 c 0.09982,0 0.180175,0.080358 0.180175,0.180175 v 1.0216823 c 0,0.099817 -0.08036,0.180175 -0.180175,0.180175 h -1.021661 c -0.09982,0 -0.180175,-0.080358 -0.180175,-0.180175 v -1.0216823 c 0,-0.099817 0.08036,-0.180175 0.180175,-0.180175 z" />
          <path
             id="rect4503"
             style="fill-rule:evenodd;stroke-width:0.0335774;stroke-linecap:round;stroke-linejoin:round"
             d="m 38.581237,-2.8523836 h 1.021661 c 0.09982,0 0.180175,0.080358 0.180175,0.1801749 v 1.0216824 c 0,0.099817 -0.08036,0.180175 -0.180175,0.180175 h -1.021661 c -0.09982,0 -0.180175,-0.080358 -0.180175,-0.180175 v -1.0216824 c 0,-0.099817 0.08036,-0.1801749 0.180175,-0.1801749 z" />
          <path
             id="rect4505"
             style="fill-rule:evenodd;stroke-width:0.0335774;stroke-linecap:round;stroke-linejoin:round"
             d="m 38.581237,-0.23668995 h 1.021661 c 0.09982,0 0.180175,0.080358 0.180175,0.18017496 v 1.02168235 c 0,0.0998169 -0.08036,0.18017494 -0.180175,0.18017494 h -1.021661 c -0.09982,0 -0.180175,-0.080358 -0.180175,-0.18017494 v -1.02168235 c 0,-0.09981693 0.08036,-0.18017496 0.180175,-0.18017496 z" />
        </g>
      </g>
      <g
         aria-label="Penngram"
         id="text11393"
         style="font-size:6.92274px;line-height:1.25;font-family:'Noto Serif Armenian';-inkscape-font-specification:'Noto Serif Armenian';fill:#ffffff;fill-opacity:0.952941;stroke-width:0.250101"
         inkscape:export-filename="D:\Desktop\sffdsfvdsf.png"
         inkscape:export-xdpi="96"
         inkscape:export-ydpi="96"
         transform="matrix(1.0579072,0,0,1.0579072,-0.98430112,0.80166214)">
        <path
           d="m 13.275391,1.5780398 q 0.719965,0 1.190711,0.373828 0.477669,0.373828 0.477669,1.0937929 0,0.4845918 -0.228451,0.8238061 -0.221527,0.3392142 -0.602278,0.50536 -0.373828,0.1661457 -0.837651,0.1661457 h -1.273785 v 1.6960713 q 0,0.07615 -0.05538,0.1315321 -0.05538,0.055382 -0.131532,0.055382 H 11.53086 q -0.07615,0 -0.131532,-0.055382 -0.05538,-0.055382 -0.05538,-0.1315321 v -4.47209 q 0,-0.07615 0.05538,-0.131532 0.05538,-0.055382 0.131532,-0.055382 z m -0.03461,2.3398862 q 0.50536,0 0.775347,-0.214605 0.269987,-0.2215277 0.269987,-0.6576603 0,-0.8445743 -1.045334,-0.8445743 H 12.001606 V 3.917926 Z"
           style="font-family:Rubik;-inkscape-font-specification:Rubik;fill:#ffffff;stroke-width:0.250101"
           id="path20777" />
        <path
           d="m 17.117507,2.7549056 q 0.740733,0 1.169943,0.4707464 0.42921,0.4707463 0.42921,1.2807068 v 0.186914 q 0,0.07615 -0.05538,0.1315321 -0.05538,0.055382 -0.131532,0.055382 h -2.381423 v 0.041536 q 0.01385,0.4569009 0.27691,0.719965 0.269987,0.2561414 0.692274,0.2561414 0.346137,0 0.533051,-0.089996 0.193837,-0.089996 0.346137,-0.2561414 0.05538,-0.055382 0.09692,-0.07615 0.04846,-0.020768 0.124609,-0.020768 h 0.207683 q 0.08307,0 0.138454,0.055382 0.05538,0.055382 0.04846,0.1315321 -0.02769,0.186914 -0.207683,0.3876734 -0.173068,0.1938368 -0.50536,0.3322916 -0.325368,0.131532 -0.782269,0.131532 -0.443056,0 -0.789193,-0.2007594 Q 15.982181,6.0847434 15.774499,5.7247609 15.57374,5.3647784 15.532203,4.9148003 q -0.01384,-0.2076822 -0.01384,-0.318446 0,-0.1107639 0.01384,-0.3184461 0.04154,-0.4292098 0.242296,-0.7753468 0.207682,-0.346137 0.546897,-0.5468965 0.346137,-0.2007595 0.796115,-0.2007595 z m 0.976106,1.5437711 v -0.020768 q 0,-0.4222871 -0.269987,-0.6715057 -0.263064,-0.2561414 -0.706119,-0.2561414 -0.401519,0 -0.685351,0.2561414 -0.27691,0.2561413 -0.283833,0.6715057 v 0.020768 z"
           style="font-family:Rubik;-inkscape-font-specification:Rubik;fill:#ffffff;stroke-width:0.250101"
           id="path20779" />
        <path
           d="m 22.752611,6.2370438 q 0,0.07615 -0.05538,0.1315321 -0.05538,0.055382 -0.131532,0.055382 h -0.256141 q -0.07615,0 -0.131532,-0.055382 -0.05538,-0.055382 -0.05538,-0.1315321 V 4.4094405 q 0,-0.5192055 -0.256141,-0.7891924 -0.256142,-0.2699868 -0.713043,-0.2699868 -0.449978,0 -0.713042,0.2699868 -0.256141,0.2699869 -0.256141,0.7891924 v 1.8276033 q 0,0.07615 -0.05538,0.1315321 -0.05538,0.055382 -0.131532,0.055382 h -0.256142 q -0.07615,0 -0.131532,-0.055382 -0.05538,-0.055382 -0.05538,-0.1315321 V 3.011047 q 0,-0.07615 0.05538,-0.131532 0.05538,-0.055382 0.131532,-0.055382 h 0.256142 q 0.07615,0 0.131532,0.055382 0.05538,0.055382 0.05538,0.131532 v 0.214605 q 0.1523,-0.2007595 0.415364,-0.3322916 0.269987,-0.1384548 0.657661,-0.1384548 0.436132,0 0.775346,0.186914 0.339215,0.186914 0.526129,0.5399737 0.193836,0.346137 0.193836,0.8238061 z"
           style="font-family:Rubik;-inkscape-font-specification:Rubik;fill:#ffffff;stroke-width:0.250101"
           id="path20781" />
        <path
           d="m 26.954704,6.2370438 q 0,0.07615 -0.05538,0.1315321 -0.05538,0.055382 -0.131532,0.055382 H 26.51165 q -0.07615,0 -0.131532,-0.055382 -0.05538,-0.055382 -0.05538,-0.1315321 V 4.4094405 q 0,-0.5192055 -0.256141,-0.7891924 -0.256142,-0.2699868 -0.713042,-0.2699868 -0.449979,0 -0.713043,0.2699868 -0.256141,0.2699869 -0.256141,0.7891924 v 1.8276033 q 0,0.07615 -0.05538,0.1315321 -0.05538,0.055382 -0.131532,0.055382 h -0.256141 q -0.07615,0 -0.131532,-0.055382 -0.05538,-0.055382 -0.05538,-0.1315321 V 3.011047 q 0,-0.07615 0.05538,-0.131532 0.05538,-0.055382 0.131532,-0.055382 h 0.256141 q 0.07615,0 0.131532,0.055382 0.05538,0.055382 0.05538,0.131532 v 0.214605 q 0.1523,-0.2007595 0.415364,-0.3322916 0.269987,-0.1384548 0.657661,-0.1384548 0.436132,0 0.775347,0.186914 0.339214,0.186914 0.526128,0.5399737 0.193837,0.346137 0.193837,0.8238061 z"
           style="font-family:Rubik;-inkscape-font-specification:Rubik;fill:#ffffff;stroke-width:0.250101"
           id="path20783" />
        <path
           d="m 29.356884,2.7549056 q 0.387674,0 0.650738,0.1384548 0.269987,0.1315321 0.422287,0.3322916 V 3.011047 q 0,-0.07615 0.05538,-0.131532 0.05538,-0.055382 0.131532,-0.055382 h 0.256141 q 0.07615,0 0.131532,0.055382 0.05538,0.055382 0.05538,0.131532 v 3.3644516 q 0,0.7338105 -0.415364,1.1491749 -0.415365,0.4222871 -1.218402,0.4222871 -0.519206,0 -0.872266,-0.159223 -0.353059,-0.159223 -0.526128,-0.3945962 -0.166146,-0.2353731 -0.179991,-0.477669 -0.0069,-0.07615 0.04846,-0.1315321 0.0623,-0.055382 0.138455,-0.055382 h 0.207682 q 0.08307,0 0.131532,0.041536 0.04846,0.041537 0.09692,0.1453776 0.06923,0.159223 0.263064,0.2976778 0.193836,0.1384548 0.623046,0.1384548 1.073025,0 1.073025,-0.8930335 V 6.0224389 q -0.35306,0.4707463 -1.073025,0.4707463 -0.42921,0 -0.782269,-0.2007594 Q 28.228478,6.0916663 28.013873,5.7247611 27.80619,5.3509331 27.785422,4.8524958 l -0.0069,-0.2284504 0.0069,-0.2284504 q 0.02077,-0.4984373 0.228451,-0.8653425 0.214605,-0.3738279 0.560742,-0.5745874 0.346137,-0.2007595 0.782269,-0.2007595 z m 0.06923,0.5953557 q -0.449978,0 -0.719965,0.2907551 -0.263064,0.290755 -0.290755,0.7891923 l -0.0069,0.1938367 0.0069,0.1938367 q 0.02769,0.4984373 0.290755,0.7891924 0.269987,0.2907551 0.719965,0.2907551 0.443055,0 0.713042,-0.2699869 0.269987,-0.2769096 0.290755,-0.7545786 0.0069,-0.069227 0.0069,-0.2492187 0,-0.1799912 -0.0069,-0.2492186 Q 30.409141,3.890235 30.139154,3.6202481 29.869167,3.3502613 29.426112,3.3502613 Z"
           style="font-family:Rubik;-inkscape-font-specification:Rubik;fill:#ffffff;stroke-width:0.250101"
           id="path20785" />
        <path
           d="m 33.925889,2.824133 q 0.07615,0 0.131532,0.055382 0.05538,0.055382 0.05538,0.131532 v 0.2215277 q 0,0.07615 -0.05538,0.1315321 -0.05538,0.055382 -0.131532,0.055382 h -0.401518 q -0.387674,0 -0.595356,0.2076822 -0.20076,0.2007594 -0.20076,0.5884329 v 2.02144 q 0,0.07615 -0.05538,0.1315321 -0.05538,0.055382 -0.131532,0.055382 H 32.2852 q -0.07615,0 -0.131532,-0.055382 -0.05538,-0.055382 -0.05538,-0.1315321 V 3.011047 q 0,-0.07615 0.05538,-0.131532 0.05538,-0.055382 0.131532,-0.055382 h 0.256141 q 0.07615,0 0.131532,0.055382 0.05538,0.055382 0.05538,0.131532 v 0.214605 q 0.138455,-0.2076822 0.332292,-0.3046006 0.193837,-0.096918 0.50536,-0.096918 z"
           style="font-family:Rubik;-inkscape-font-specification:Rubik;fill:#ffffff;stroke-width:0.250101"
           id="path20787" />
        <path
           d="m 36.854196,4.1463764 v -0.089996 q 0,-0.3392143 -0.228451,-0.5192055 -0.221527,-0.186914 -0.58151,-0.186914 -0.276909,0 -0.436132,0.096918 -0.152301,0.089996 -0.290755,0.2769096 -0.04154,0.055382 -0.09,0.07615 -0.04846,0.020768 -0.131532,0.020768 h -0.207682 q -0.07615,0 -0.138455,-0.055382 -0.05538,-0.055382 -0.04846,-0.1315321 0.02077,-0.2076822 0.200759,-0.4084416 0.186914,-0.2076822 0.491515,-0.3392143 0.3046,-0.1315321 0.650737,-0.1315321 0.643815,0 1.038411,0.3599825 0.401519,0.3599825 0.401519,1.0107201 v 2.1114356 q 0,0.07615 -0.05538,0.1315321 -0.05538,0.055382 -0.131532,0.055382 H 37.04111 q -0.07615,0 -0.131532,-0.055382 -0.05538,-0.055382 -0.05538,-0.1315321 V 5.9532115 q -0.110764,0.2492186 -0.470746,0.3945962 -0.359983,0.1453775 -0.719965,0.1453775 -0.35306,0 -0.62997,-0.1246093 Q 34.756608,6.2370438 34.604307,6.0155162 34.45893,5.7939885 34.45893,5.5170789 q 0,-0.5192055 0.387673,-0.8099606 0.387674,-0.2976778 1.031489,-0.4015189 z m 0,0.5538192 -0.816883,0.131532 q -0.449979,0.069227 -0.699197,0.2284504 -0.249219,0.1523003 -0.249219,0.3876735 0,0.1730685 0.159223,0.3115233 0.159223,0.1384548 0.484592,0.1384548 0.498437,0 0.809961,-0.2838324 0.311523,-0.2838323 0.311523,-0.7407331 z"
           style="font-family:Rubik;-inkscape-font-specification:Rubik;fill:#ffffff;stroke-width:0.250101"
           id="path20789" />
        <path
           d="m 39.124852,3.225652 q 0.166146,-0.214605 0.373828,-0.3392143 0.207682,-0.1315321 0.553819,-0.1315321 0.809961,0 1.13533,0.6022784 0.200759,-0.2907551 0.456901,-0.4430553 0.256141,-0.1592231 0.671505,-0.1592231 0.678429,0 1.003798,0.4084417 0.332291,0.4084417 0.332291,1.1560976 v 1.9175989 q 0,0.07615 -0.05538,0.1315321 -0.05538,0.055382 -0.131532,0.055382 h -0.256141 q -0.07615,0 -0.131532,-0.055382 -0.05538,-0.055382 -0.05538,-0.1315321 V 4.3886723 q 0,-1.038411 -0.816883,-1.038411 -0.373828,0 -0.595356,0.2492186 -0.221528,0.2492187 -0.221528,0.7407332 v 1.8968307 q 0,0.07615 -0.05538,0.1315321 -0.05538,0.055382 -0.131532,0.055382 h -0.256141 q -0.07615,0 -0.131532,-0.055382 -0.05538,-0.055382 -0.05538,-0.1315321 V 4.3886723 q 0,-1.038411 -0.816883,-1.038411 -0.373828,0 -0.595356,0.2492186 -0.221528,0.2492187 -0.221528,0.7407332 v 1.8968307 q 0,0.07615 -0.05538,0.1315321 -0.05538,0.055382 -0.131532,0.055382 h -0.256141 q -0.07615,0 -0.131532,-0.055382 -0.05538,-0.055382 -0.05538,-0.1315321 V 3.011047 q 0,-0.07615 0.05538,-0.131532 0.05538,-0.055382 0.131532,-0.055382 h 0.256141 q 0.07615,0 0.131532,0.055382 0.05538,0.055382 0.05538,0.131532 z"
           style="font-family:Rubik;-inkscape-font-specification:Rubik;fill:#ffffff;stroke-width:0.250101"
           id="path20791" />
      </g>
    </g>
  </g>
  <script
     id="mesh_polyfill"
     type="text/javascript">
!function(){const t=&quot;http://www.w3.org/2000/svg&quot;,e=&quot;http://www.w3.org/1999/xlink&quot;,s=&quot;http://www.w3.org/1999/xhtml&quot;,r=2;if(document.createElementNS(t,&quot;meshgradient&quot;).x)return;const n=(t,e,s,r)=&gt;{let n=new x(.5*(e.x+s.x),.5*(e.y+s.y)),o=new x(.5*(t.x+e.x),.5*(t.y+e.y)),i=new x(.5*(s.x+r.x),.5*(s.y+r.y)),a=new x(.5*(n.x+o.x),.5*(n.y+o.y)),h=new x(.5*(n.x+i.x),.5*(n.y+i.y)),l=new x(.5*(a.x+h.x),.5*(a.y+h.y));return[[t,o,a,l],[l,h,i,r]]},o=t=&gt;{let e=t[0].distSquared(t[1]),s=t[2].distSquared(t[3]),r=.25*t[0].distSquared(t[2]),n=.25*t[1].distSquared(t[3]),o=e&gt;s?e:s,i=r&gt;n?r:n;return 18*(o&gt;i?o:i)},i=(t,e)=&gt;Math.sqrt(t.distSquared(e)),a=(t,e)=&gt;t.scale(2/3).add(e.scale(1/3)),h=t=&gt;{let e,s,r,n,o,i,a,h=new g;return t.match(/(\w+\(\s*[^)]+\))+/g).forEach(t=&gt;{let l=t.match(/[\w.-]+/g),d=l.shift();switch(d){case&quot;translate&quot;:2===l.length?e=new g(1,0,0,1,l[0],l[1]):(console.error(&quot;mesh.js: translate does not have 2 arguments!&quot;),e=new g(1,0,0,1,0,0)),h=h.append(e);break;case&quot;scale&quot;:1===l.length?s=new g(l[0],0,0,l[0],0,0):2===l.length?s=new g(l[0],0,0,l[1],0,0):(console.error(&quot;mesh.js: scale does not have 1 or 2 arguments!&quot;),s=new g(1,0,0,1,0,0)),h=h.append(s);break;case&quot;rotate&quot;:if(3===l.length&amp;&amp;(e=new g(1,0,0,1,l[1],l[2]),h=h.append(e)),l[0]){r=l[0]*Math.PI/180;let t=Math.cos(r),e=Math.sin(r);Math.abs(t)&lt;1e-16&amp;&amp;(t=0),Math.abs(e)&lt;1e-16&amp;&amp;(e=0),a=new g(t,e,-e,t,0,0),h=h.append(a)}else console.error(&quot;math.js: No argument to rotate transform!&quot;);3===l.length&amp;&amp;(e=new g(1,0,0,1,-l[1],-l[2]),h=h.append(e));break;case&quot;skewX&quot;:l[0]?(r=l[0]*Math.PI/180,n=Math.tan(r),o=new g(1,0,n,1,0,0),h=h.append(o)):console.error(&quot;math.js: No argument to skewX transform!&quot;);break;case&quot;skewY&quot;:l[0]?(r=l[0]*Math.PI/180,n=Math.tan(r),i=new g(1,n,0,1,0,0),h=h.append(i)):console.error(&quot;math.js: No argument to skewY transform!&quot;);break;case&quot;matrix&quot;:6===l.length?h=h.append(new g(...l)):console.error(&quot;math.js: Incorrect number of arguments for matrix!&quot;);break;default:console.error(&quot;mesh.js: Unhandled transform type: &quot;+d)}}),h},l=t=&gt;{let e=[],s=t.split(/[ ,]+/);for(let t=0,r=s.length-1;t&lt;r;t+=2)e.push(new x(parseFloat(s[t]),parseFloat(s[t+1])));return e},d=(t,e)=&gt;{for(let s in e)t.setAttribute(s,e[s])},c=(t,e,s,r,n)=&gt;{let o,i,a=[0,0,0,0];for(let h=0;h&lt;3;++h)e[h]&lt;t[h]&amp;&amp;e[h]&lt;s[h]||t[h]&lt;e[h]&amp;&amp;s[h]&lt;e[h]?a[h]=0:(a[h]=.5*((e[h]-t[h])/r+(s[h]-e[h])/n),o=Math.abs(3*(e[h]-t[h])/r),i=Math.abs(3*(s[h]-e[h])/n),a[h]&gt;o?a[h]=o:a[h]&gt;i&amp;&amp;(a[h]=i));return a},u=[[1,0,0,0,0,0,0,0,0,0,0,0,0,0,0,0],[0,0,0,0,1,0,0,0,0,0,0,0,0,0,0,0],[-3,3,0,0,-2,-1,0,0,0,0,0,0,0,0,0,0],[2,-2,0,0,1,1,0,0,0,0,0,0,0,0,0,0],[0,0,0,0,0,0,0,0,1,0,0,0,0,0,0,0],[0,0,0,0,0,0,0,0,0,0,0,0,1,0,0,0],[0,0,0,0,0,0,0,0,-3,3,0,0,-2,-1,0,0],[0,0,0,0,0,0,0,0,2,-2,0,0,1,1,0,0],[-3,0,3,0,0,0,0,0,-2,0,-1,0,0,0,0,0],[0,0,0,0,-3,0,3,0,0,0,0,0,-2,0,-1,0],[9,-9,-9,9,6,3,-6,-3,6,-6,3,-3,4,2,2,1],[-6,6,6,-6,-3,-3,3,3,-4,4,-2,2,-2,-2,-1,-1],[2,0,-2,0,0,0,0,0,1,0,1,0,0,0,0,0],[0,0,0,0,2,0,-2,0,0,0,0,0,1,0,1,0],[-6,6,6,-6,-4,-2,4,2,-3,3,-3,3,-2,-1,-2,-1],[4,-4,-4,4,2,2,-2,-2,2,-2,2,-2,1,1,1,1]],f=t=&gt;{let e=[];for(let s=0;s&lt;16;++s){e[s]=0;for(let r=0;r&lt;16;++r)e[s]+=u[s][r]*t[r]}return e},p=(t,e,s)=&gt;{const r=e*e,n=s*s,o=e*e*e,i=s*s*s;return t[0]+t[1]*e+t[2]*r+t[3]*o+t[4]*s+t[5]*s*e+t[6]*s*r+t[7]*s*o+t[8]*n+t[9]*n*e+t[10]*n*r+t[11]*n*o+t[12]*i+t[13]*i*e+t[14]*i*r+t[15]*i*o},y=t=&gt;{let e=[],s=[],r=[];for(let s=0;s&lt;4;++s)e[s]=[],e[s][0]=n(t[0][s],t[1][s],t[2][s],t[3][s]),e[s][1]=[],e[s][1].push(...n(...e[s][0][0])),e[s][1].push(...n(...e[s][0][1])),e[s][2]=[],e[s][2].push(...n(...e[s][1][0])),e[s][2].push(...n(...e[s][1][1])),e[s][2].push(...n(...e[s][1][2])),e[s][2].push(...n(...e[s][1][3]));for(let t=0;t&lt;8;++t){s[t]=[];for(let r=0;r&lt;4;++r)s[t][r]=[],s[t][r][0]=n(e[0][2][t][r],e[1][2][t][r],e[2][2][t][r],e[3][2][t][r]),s[t][r][1]=[],s[t][r][1].push(...n(...s[t][r][0][0])),s[t][r][1].push(...n(...s[t][r][0][1])),s[t][r][2]=[],s[t][r][2].push(...n(...s[t][r][1][0])),s[t][r][2].push(...n(...s[t][r][1][1])),s[t][r][2].push(...n(...s[t][r][1][2])),s[t][r][2].push(...n(...s[t][r][1][3]))}for(let t=0;t&lt;8;++t){r[t]=[];for(let e=0;e&lt;8;++e)r[t][e]=[],r[t][e][0]=s[t][0][2][e],r[t][e][1]=s[t][1][2][e],r[t][e][2]=s[t][2][2][e],r[t][e][3]=s[t][3][2][e]}return r};class x{constructor(t,e){this.x=t||0,this.y=e||0}toString(){return`(x=${this.x}, y=${this.y})`}clone(){return new x(this.x,this.y)}add(t){return new x(this.x+t.x,this.y+t.y)}scale(t){return void 0===t.x?new x(this.x*t,this.y*t):new x(this.x*t.x,this.y*t.y)}distSquared(t){let e=this.x-t.x,s=this.y-t.y;return e*e+s*s}transform(t){let e=this.x*t.a+this.y*t.c+t.e,s=this.x*t.b+this.y*t.d+t.f;return new x(e,s)}}class g{constructor(t,e,s,r,n,o){void 0===t?(this.a=1,this.b=0,this.c=0,this.d=1,this.e=0,this.f=0):(this.a=t,this.b=e,this.c=s,this.d=r,this.e=n,this.f=o)}toString(){return`affine: ${this.a} ${this.c} ${this.e} \n       ${this.b} ${this.d} ${this.f}`}append(t){t instanceof g||console.error(&quot;mesh.js: argument to Affine.append is not affine!&quot;);let e=this.a*t.a+this.c*t.b,s=this.b*t.a+this.d*t.b,r=this.a*t.c+this.c*t.d,n=this.b*t.c+this.d*t.d,o=this.a*t.e+this.c*t.f+this.e,i=this.b*t.e+this.d*t.f+this.f;return new g(e,s,r,n,o,i)}}class w{constructor(t,e){this.nodes=t,this.colors=e}paintCurve(t,e){if(o(this.nodes)&gt;r){const s=n(...this.nodes);let r=[[],[]],o=[[],[]];for(let t=0;t&lt;4;++t)r[0][t]=this.colors[0][t],r[1][t]=(this.colors[0][t]+this.colors[1][t])/2,o[0][t]=r[1][t],o[1][t]=this.colors[1][t];let i=new w(s[0],r),a=new w(s[1],o);i.paintCurve(t,e),a.paintCurve(t,e)}else{let s=Math.round(this.nodes[0].x);if(s&gt;=0&amp;&amp;s&lt;e){let r=4*(~~this.nodes[0].y*e+s);t[r]=Math.round(this.colors[0][0]),t[r+1]=Math.round(this.colors[0][1]),t[r+2]=Math.round(this.colors[0][2]),t[r+3]=Math.round(this.colors[0][3])}}}}class m{constructor(t,e){this.nodes=t,this.colors=e}split(){let t=[[],[],[],[]],e=[[],[],[],[]],s=[[[],[]],[[],[]]],r=[[[],[]],[[],[]]];for(let s=0;s&lt;4;++s){const r=n(this.nodes[0][s],this.nodes[1][s],this.nodes[2][s],this.nodes[3][s]);t[0][s]=r[0][0],t[1][s]=r[0][1],t[2][s]=r[0][2],t[3][s]=r[0][3],e[0][s]=r[1][0],e[1][s]=r[1][1],e[2][s]=r[1][2],e[3][s]=r[1][3]}for(let t=0;t&lt;4;++t)s[0][0][t]=this.colors[0][0][t],s[0][1][t]=this.colors[0][1][t],s[1][0][t]=(this.colors[0][0][t]+this.colors[1][0][t])/2,s[1][1][t]=(this.colors[0][1][t]+this.colors[1][1][t])/2,r[0][0][t]=s[1][0][t],r[0][1][t]=s[1][1][t],r[1][0][t]=this.colors[1][0][t],r[1][1][t]=this.colors[1][1][t];return[new m(t,s),new m(e,r)]}paint(t,e){let s,n=!1;for(let t=0;t&lt;4;++t)if((s=o([this.nodes[0][t],this.nodes[1][t],this.nodes[2][t],this.nodes[3][t]]))&gt;r){n=!0;break}if(n){let s=this.split();s[0].paint(t,e),s[1].paint(t,e)}else{new w([...this.nodes[0]],[...this.colors[0]]).paintCurve(t,e)}}}class b{constructor(t){this.readMesh(t),this.type=t.getAttribute(&quot;type&quot;)||&quot;bilinear&quot;}readMesh(t){let e=[[]],s=[[]],r=Number(t.getAttribute(&quot;x&quot;)),n=Number(t.getAttribute(&quot;y&quot;));e[0][0]=new x(r,n);let o=t.children;for(let t=0,r=o.length;t&lt;r;++t){e[3*t+1]=[],e[3*t+2]=[],e[3*t+3]=[],s[t+1]=[];let r=o[t].children;for(let n=0,o=r.length;n&lt;o;++n){let o=r[n].children;for(let r=0,i=o.length;r&lt;i;++r){let i=r;0!==t&amp;&amp;++i;let h,d=o[r].getAttribute(&quot;path&quot;),c=&quot;l&quot;;null!=d&amp;&amp;(c=(h=d.match(/\s*([lLcC])\s*(.*)/))[1]);let u=l(h[2]);switch(c){case&quot;l&quot;:0===i?(e[3*t][3*n+3]=u[0].add(e[3*t][3*n]),e[3*t][3*n+1]=a(e[3*t][3*n],e[3*t][3*n+3]),e[3*t][3*n+2]=a(e[3*t][3*n+3],e[3*t][3*n])):1===i?(e[3*t+3][3*n+3]=u[0].add(e[3*t][3*n+3]),e[3*t+1][3*n+3]=a(e[3*t][3*n+3],e[3*t+3][3*n+3]),e[3*t+2][3*n+3]=a(e[3*t+3][3*n+3],e[3*t][3*n+3])):2===i?(0===n&amp;&amp;(e[3*t+3][3*n+0]=u[0].add(e[3*t+3][3*n+3])),e[3*t+3][3*n+1]=a(e[3*t+3][3*n],e[3*t+3][3*n+3]),e[3*t+3][3*n+2]=a(e[3*t+3][3*n+3],e[3*t+3][3*n])):(e[3*t+1][3*n]=a(e[3*t][3*n],e[3*t+3][3*n]),e[3*t+2][3*n]=a(e[3*t+3][3*n],e[3*t][3*n]));break;case&quot;L&quot;:0===i?(e[3*t][3*n+3]=u[0],e[3*t][3*n+1]=a(e[3*t][3*n],e[3*t][3*n+3]),e[3*t][3*n+2]=a(e[3*t][3*n+3],e[3*t][3*n])):1===i?(e[3*t+3][3*n+3]=u[0],e[3*t+1][3*n+3]=a(e[3*t][3*n+3],e[3*t+3][3*n+3]),e[3*t+2][3*n+3]=a(e[3*t+3][3*n+3],e[3*t][3*n+3])):2===i?(0===n&amp;&amp;(e[3*t+3][3*n+0]=u[0]),e[3*t+3][3*n+1]=a(e[3*t+3][3*n],e[3*t+3][3*n+3]),e[3*t+3][3*n+2]=a(e[3*t+3][3*n+3],e[3*t+3][3*n])):(e[3*t+1][3*n]=a(e[3*t][3*n],e[3*t+3][3*n]),e[3*t+2][3*n]=a(e[3*t+3][3*n],e[3*t][3*n]));break;case&quot;c&quot;:0===i?(e[3*t][3*n+1]=u[0].add(e[3*t][3*n]),e[3*t][3*n+2]=u[1].add(e[3*t][3*n]),e[3*t][3*n+3]=u[2].add(e[3*t][3*n])):1===i?(e[3*t+1][3*n+3]=u[0].add(e[3*t][3*n+3]),e[3*t+2][3*n+3]=u[1].add(e[3*t][3*n+3]),e[3*t+3][3*n+3]=u[2].add(e[3*t][3*n+3])):2===i?(e[3*t+3][3*n+2]=u[0].add(e[3*t+3][3*n+3]),e[3*t+3][3*n+1]=u[1].add(e[3*t+3][3*n+3]),0===n&amp;&amp;(e[3*t+3][3*n+0]=u[2].add(e[3*t+3][3*n+3]))):(e[3*t+2][3*n]=u[0].add(e[3*t+3][3*n]),e[3*t+1][3*n]=u[1].add(e[3*t+3][3*n]));break;case&quot;C&quot;:0===i?(e[3*t][3*n+1]=u[0],e[3*t][3*n+2]=u[1],e[3*t][3*n+3]=u[2]):1===i?(e[3*t+1][3*n+3]=u[0],e[3*t+2][3*n+3]=u[1],e[3*t+3][3*n+3]=u[2]):2===i?(e[3*t+3][3*n+2]=u[0],e[3*t+3][3*n+1]=u[1],0===n&amp;&amp;(e[3*t+3][3*n+0]=u[2])):(e[3*t+2][3*n]=u[0],e[3*t+1][3*n]=u[1]);break;default:console.error(&quot;mesh.js: &quot;+c+&quot; invalid path type.&quot;)}if(0===t&amp;&amp;0===n||r&gt;0){let e=window.getComputedStyle(o[r]).stopColor.match(/^rgb\s*\(\s*(\d+)\s*,\s*(\d+)\s*,\s*(\d+)\s*\)$/i),a=window.getComputedStyle(o[r]).stopOpacity,h=255;a&amp;&amp;(h=Math.floor(255*a)),e&amp;&amp;(0===i?(s[t][n]=[],s[t][n][0]=Math.floor(e[1]),s[t][n][1]=Math.floor(e[2]),s[t][n][2]=Math.floor(e[3]),s[t][n][3]=h):1===i?(s[t][n+1]=[],s[t][n+1][0]=Math.floor(e[1]),s[t][n+1][1]=Math.floor(e[2]),s[t][n+1][2]=Math.floor(e[3]),s[t][n+1][3]=h):2===i?(s[t+1][n+1]=[],s[t+1][n+1][0]=Math.floor(e[1]),s[t+1][n+1][1]=Math.floor(e[2]),s[t+1][n+1][2]=Math.floor(e[3]),s[t+1][n+1][3]=h):3===i&amp;&amp;(s[t+1][n]=[],s[t+1][n][0]=Math.floor(e[1]),s[t+1][n][1]=Math.floor(e[2]),s[t+1][n][2]=Math.floor(e[3]),s[t+1][n][3]=h))}}e[3*t+1][3*n+1]=new x,e[3*t+1][3*n+2]=new x,e[3*t+2][3*n+1]=new x,e[3*t+2][3*n+2]=new x,e[3*t+1][3*n+1].x=(-4*e[3*t][3*n].x+6*(e[3*t][3*n+1].x+e[3*t+1][3*n].x)+-2*(e[3*t][3*n+3].x+e[3*t+3][3*n].x)+3*(e[3*t+3][3*n+1].x+e[3*t+1][3*n+3].x)+-1*e[3*t+3][3*n+3].x)/9,e[3*t+1][3*n+2].x=(-4*e[3*t][3*n+3].x+6*(e[3*t][3*n+2].x+e[3*t+1][3*n+3].x)+-2*(e[3*t][3*n].x+e[3*t+3][3*n+3].x)+3*(e[3*t+3][3*n+2].x+e[3*t+1][3*n].x)+-1*e[3*t+3][3*n].x)/9,e[3*t+2][3*n+1].x=(-4*e[3*t+3][3*n].x+6*(e[3*t+3][3*n+1].x+e[3*t+2][3*n].x)+-2*(e[3*t+3][3*n+3].x+e[3*t][3*n].x)+3*(e[3*t][3*n+1].x+e[3*t+2][3*n+3].x)+-1*e[3*t][3*n+3].x)/9,e[3*t+2][3*n+2].x=(-4*e[3*t+3][3*n+3].x+6*(e[3*t+3][3*n+2].x+e[3*t+2][3*n+3].x)+-2*(e[3*t+3][3*n].x+e[3*t][3*n+3].x)+3*(e[3*t][3*n+2].x+e[3*t+2][3*n].x)+-1*e[3*t][3*n].x)/9,e[3*t+1][3*n+1].y=(-4*e[3*t][3*n].y+6*(e[3*t][3*n+1].y+e[3*t+1][3*n].y)+-2*(e[3*t][3*n+3].y+e[3*t+3][3*n].y)+3*(e[3*t+3][3*n+1].y+e[3*t+1][3*n+3].y)+-1*e[3*t+3][3*n+3].y)/9,e[3*t+1][3*n+2].y=(-4*e[3*t][3*n+3].y+6*(e[3*t][3*n+2].y+e[3*t+1][3*n+3].y)+-2*(e[3*t][3*n].y+e[3*t+3][3*n+3].y)+3*(e[3*t+3][3*n+2].y+e[3*t+1][3*n].y)+-1*e[3*t+3][3*n].y)/9,e[3*t+2][3*n+1].y=(-4*e[3*t+3][3*n].y+6*(e[3*t+3][3*n+1].y+e[3*t+2][3*n].y)+-2*(e[3*t+3][3*n+3].y+e[3*t][3*n].y)+3*(e[3*t][3*n+1].y+e[3*t+2][3*n+3].y)+-1*e[3*t][3*n+3].y)/9,e[3*t+2][3*n+2].y=(-4*e[3*t+3][3*n+3].y+6*(e[3*t+3][3*n+2].y+e[3*t+2][3*n+3].y)+-2*(e[3*t+3][3*n].y+e[3*t][3*n+3].y)+3*(e[3*t][3*n+2].y+e[3*t+2][3*n].y)+-1*e[3*t][3*n].y)/9}}this.nodes=e,this.colors=s}paintMesh(t,e){let s=(this.nodes.length-1)/3,r=(this.nodes[0].length-1)/3;if(&quot;bilinear&quot;===this.type||s&lt;2||r&lt;2){let n;for(let o=0;o&lt;s;++o)for(let s=0;s&lt;r;++s){let r=[];for(let t=3*o,e=3*o+4;t&lt;e;++t)r.push(this.nodes[t].slice(3*s,3*s+4));let i=[];i.push(this.colors[o].slice(s,s+2)),i.push(this.colors[o+1].slice(s,s+2)),(n=new m(r,i)).paint(t,e)}}else{let n,o,a,h,l,d,u;const x=s,g=r;s++,r++;let w=new Array(s);for(let t=0;t&lt;s;++t){w[t]=new Array(r);for(let e=0;e&lt;r;++e)w[t][e]=[],w[t][e][0]=this.nodes[3*t][3*e],w[t][e][1]=this.colors[t][e]}for(let t=0;t&lt;s;++t)for(let e=0;e&lt;r;++e)0!==t&amp;&amp;t!==x&amp;&amp;(n=i(w[t-1][e][0],w[t][e][0]),o=i(w[t+1][e][0],w[t][e][0]),w[t][e][2]=c(w[t-1][e][1],w[t][e][1],w[t+1][e][1],n,o)),0!==e&amp;&amp;e!==g&amp;&amp;(n=i(w[t][e-1][0],w[t][e][0]),o=i(w[t][e+1][0],w[t][e][0]),w[t][e][3]=c(w[t][e-1][1],w[t][e][1],w[t][e+1][1],n,o));for(let t=0;t&lt;r;++t){w[0][t][2]=[],w[x][t][2]=[];for(let e=0;e&lt;4;++e)n=i(w[1][t][0],w[0][t][0]),o=i(w[x][t][0],w[x-1][t][0]),w[0][t][2][e]=n&gt;0?2*(w[1][t][1][e]-w[0][t][1][e])/n-w[1][t][2][e]:0,w[x][t][2][e]=o&gt;0?2*(w[x][t][1][e]-w[x-1][t][1][e])/o-w[x-1][t][2][e]:0}for(let t=0;t&lt;s;++t){w[t][0][3]=[],w[t][g][3]=[];for(let e=0;e&lt;4;++e)n=i(w[t][1][0],w[t][0][0]),o=i(w[t][g][0],w[t][g-1][0]),w[t][0][3][e]=n&gt;0?2*(w[t][1][1][e]-w[t][0][1][e])/n-w[t][1][3][e]:0,w[t][g][3][e]=o&gt;0?2*(w[t][g][1][e]-w[t][g-1][1][e])/o-w[t][g-1][3][e]:0}for(let s=0;s&lt;x;++s)for(let r=0;r&lt;g;++r){let n=i(w[s][r][0],w[s+1][r][0]),o=i(w[s][r+1][0],w[s+1][r+1][0]),c=i(w[s][r][0],w[s][r+1][0]),x=i(w[s+1][r][0],w[s+1][r+1][0]),g=[[],[],[],[]];for(let t=0;t&lt;4;++t){(d=[])[0]=w[s][r][1][t],d[1]=w[s+1][r][1][t],d[2]=w[s][r+1][1][t],d[3]=w[s+1][r+1][1][t],d[4]=w[s][r][2][t]*n,d[5]=w[s+1][r][2][t]*n,d[6]=w[s][r+1][2][t]*o,d[7]=w[s+1][r+1][2][t]*o,d[8]=w[s][r][3][t]*c,d[9]=w[s+1][r][3][t]*x,d[10]=w[s][r+1][3][t]*c,d[11]=w[s+1][r+1][3][t]*x,d[12]=0,d[13]=0,d[14]=0,d[15]=0,u=f(d);for(let e=0;e&lt;9;++e){g[t][e]=[];for(let s=0;s&lt;9;++s)g[t][e][s]=p(u,e/8,s/8),g[t][e][s]&gt;255?g[t][e][s]=255:g[t][e][s]&lt;0&amp;&amp;(g[t][e][s]=0)}}h=[];for(let t=3*s,e=3*s+4;t&lt;e;++t)h.push(this.nodes[t].slice(3*r,3*r+4));l=y(h);for(let s=0;s&lt;8;++s)for(let r=0;r&lt;8;++r)(a=new m(l[s][r],[[[g[0][s][r],g[1][s][r],g[2][s][r],g[3][s][r]],[g[0][s][r+1],g[1][s][r+1],g[2][s][r+1],g[3][s][r+1]]],[[g[0][s+1][r],g[1][s+1][r],g[2][s+1][r],g[3][s+1][r]],[g[0][s+1][r+1],g[1][s+1][r+1],g[2][s+1][r+1],g[3][s+1][r+1]]]])).paint(t,e)}}}transform(t){if(t instanceof x)for(let e=0,s=this.nodes.length;e&lt;s;++e)for(let s=0,r=this.nodes[0].length;s&lt;r;++s)this.nodes[e][s]=this.nodes[e][s].add(t);else if(t instanceof g)for(let e=0,s=this.nodes.length;e&lt;s;++e)for(let s=0,r=this.nodes[0].length;s&lt;r;++s)this.nodes[e][s]=this.nodes[e][s].transform(t)}scale(t){for(let e=0,s=this.nodes.length;e&lt;s;++e)for(let s=0,r=this.nodes[0].length;s&lt;r;++s)this.nodes[e][s]=this.nodes[e][s].scale(t)}}document.querySelectorAll(&quot;rect,circle,ellipse,path,text&quot;).forEach((r,n)=&gt;{let o=r.getAttribute(&quot;id&quot;);o||(o=&quot;patchjs_shape&quot;+n,r.setAttribute(&quot;id&quot;,o));const i=r.style.fill.match(/^url\(\s*&quot;?\s*#([^\s&quot;]+)&quot;?\s*\)/),a=r.style.stroke.match(/^url\(\s*&quot;?\s*#([^\s&quot;]+)&quot;?\s*\)/);if(i&amp;&amp;i[1]){const a=document.getElementById(i[1]);if(a&amp;&amp;&quot;meshgradient&quot;===a.nodeName){const i=r.getBBox();let l=document.createElementNS(s,&quot;canvas&quot;);d(l,{width:i.width,height:i.height});const c=l.getContext(&quot;2d&quot;);let u=c.createImageData(i.width,i.height);const f=new b(a);&quot;objectBoundingBox&quot;===a.getAttribute(&quot;gradientUnits&quot;)&amp;&amp;f.scale(new x(i.width,i.height));const p=a.getAttribute(&quot;gradientTransform&quot;);null!=p&amp;&amp;f.transform(h(p)),&quot;userSpaceOnUse&quot;===a.getAttribute(&quot;gradientUnits&quot;)&amp;&amp;f.transform(new x(-i.x,-i.y)),f.paintMesh(u.data,l.width),c.putImageData(u,0,0);const y=document.createElementNS(t,&quot;image&quot;);d(y,{width:i.width,height:i.height,x:i.x,y:i.y});let g=l.toDataURL();y.setAttributeNS(e,&quot;xlink:href&quot;,g),r.parentNode.insertBefore(y,r),r.style.fill=&quot;none&quot;;const w=document.createElementNS(t,&quot;use&quot;);w.setAttributeNS(e,&quot;xlink:href&quot;,&quot;#&quot;+o);const m=&quot;patchjs_clip&quot;+n,M=document.createElementNS(t,&quot;clipPath&quot;);M.setAttribute(&quot;id&quot;,m),M.appendChild(w),r.parentElement.insertBefore(M,r),y.setAttribute(&quot;clip-path&quot;,&quot;url(#&quot;+m+&quot;)&quot;),u=null,l=null,g=null}}if(a&amp;&amp;a[1]){const o=document.getElementById(a[1]);if(o&amp;&amp;&quot;meshgradient&quot;===o.nodeName){const i=parseFloat(r.style.strokeWidth.slice(0,-2))*(parseFloat(r.style.strokeMiterlimit)||parseFloat(r.getAttribute(&quot;stroke-miterlimit&quot;))||1),a=r.getBBox(),l=Math.trunc(a.width+i),c=Math.trunc(a.height+i),u=Math.trunc(a.x-i/2),f=Math.trunc(a.y-i/2);let p=document.createElementNS(s,&quot;canvas&quot;);d(p,{width:l,height:c});const y=p.getContext(&quot;2d&quot;);let g=y.createImageData(l,c);const w=new b(o);&quot;objectBoundingBox&quot;===o.getAttribute(&quot;gradientUnits&quot;)&amp;&amp;w.scale(new x(l,c));const m=o.getAttribute(&quot;gradientTransform&quot;);null!=m&amp;&amp;w.transform(h(m)),&quot;userSpaceOnUse&quot;===o.getAttribute(&quot;gradientUnits&quot;)&amp;&amp;w.transform(new x(-u,-f)),w.paintMesh(g.data,p.width),y.putImageData(g,0,0);const M=document.createElementNS(t,&quot;image&quot;);d(M,{width:l,height:c,x:0,y:0});let S=p.toDataURL();M.setAttributeNS(e,&quot;xlink:href&quot;,S);const k=&quot;pattern_clip&quot;+n,A=document.createElementNS(t,&quot;pattern&quot;);d(A,{id:k,patternUnits:&quot;userSpaceOnUse&quot;,width:l,height:c,x:u,y:f}),A.appendChild(M),o.parentNode.appendChild(A),r.style.stroke=&quot;url(#&quot;+k+&quot;)&quot;,g=null,p=null,S=null}}})}();
</script>
</svg>
